<?xml version="1.0" encoding="UTF-8"?>
<svg version="1.1" xmlns="http://www.w3.org/2000/svg" width="330" height="399">
<path d="M0 0 C0.6688462 -0.017788 1.33769239 -0.03557601 2.02680665 -0.05390304 C4.28496998 -0.11209078 6.54323249 -0.16258137 8.80158997 -0.21263123 C10.41447197 -0.25161305 12.02735135 -0.29070352 13.64022827 -0.32989502 C28.41162178 -0.6767012 43.18540863 -0.88038841 57.95984936 -1.04386997 C67.89178405 -1.15641246 77.8188633 -1.3138702 87.74787903 -1.58372498 C96.41065137 -1.81911479 105.07000122 -1.96885244 113.73591214 -2.01704067 C118.32129939 -2.04536196 122.89732605 -2.11465717 127.47977257 -2.28633308 C155.2983394 -3.28713387 155.2983394 -3.28713387 162.55908585 2.63766861 C167.28024952 8.3270394 170.14859887 14.56953746 172.62967968 21.48848343 C173.98616703 25.12384634 175.77772338 28.18278598 177.82820129 31.46925354 C178.94324378 33.40648933 180.05783997 35.34398208 181.17195129 37.28175354 C188.29184293 49.64253413 195.4737892 61.96643387 202.67195129 74.28175354 C210.59444818 87.83633601 218.50710997 101.39597243 226.31233215 115.01856995 C229.10454618 119.88285594 231.91824396 124.72242301 234.87507629 129.48878479 C235.35235168 130.26617004 235.82962708 131.0435553 236.32136536 131.84449768 C237.1891214 133.24981698 238.07026333 134.64700606 238.96784973 136.03346252 C240.75211068 138.93689314 241.71624781 140.74073578 241.43415833 144.18605042 C240.66824602 147.2968025 239.68260237 149.46833826 238.03913879 152.20362854 C237.48814514 153.13288147 236.93715149 154.0621344 236.36946106 155.01954651 C235.76803284 156.01357483 235.16660461 157.00760315 234.54695129 158.03175354 C233.26101861 160.19535475 231.97588919 162.35943356 230.69148254 164.52394104 C230.0258429 165.6399469 229.36020325 166.75595276 228.6743927 167.90577698 C225.47822945 173.29428533 222.35689579 178.72530559 219.23445129 184.15675354 C217.97677331 186.33912273 216.71896004 188.52141396 215.46101379 190.70362854 C214.1979186 192.89629404 212.93489785 195.08900243 211.67195129 197.28175354 C203.80073104 210.94791132 195.91519857 224.60478012 187.954422 238.2190094 C184.86624078 243.50474335 181.79385629 248.79901775 178.74226379 254.10597229 C178.41208252 254.68001801 178.08190125 255.25406372 177.74171448 255.84550476 C176.15724937 258.60076049 174.57492155 261.35720355 172.99617004 264.11573792 C171.86483481 266.08486595 170.71681923 268.04454857 169.54873466 269.99210167 C167.62576791 273.24473222 167.62576791 273.24473222 166.13759041 276.66559792 C161.73158757 285.54533424 161.73158757 285.54533424 156.31309128 287.48270798 C152.03141303 287.95124204 147.91878763 287.99642606 143.62068176 287.90040588 C141.99374352 287.91148525 140.36683525 287.92815491 138.74000549 287.94996643 C134.33789669 287.99201948 129.93996924 287.95283414 125.53815985 287.89625883 C120.92585453 287.84832781 116.31375676 287.86725851 111.70127869 287.87663269 C103.95855418 287.88197707 96.21747524 287.83536781 88.47517395 287.7568512 C79.52895513 287.66667586 70.58524513 287.65447744 61.63868034 287.68492544 C53.02276025 287.7128036 44.40772992 287.68964622 35.79191971 287.64184952 C32.12920842 287.62217876 28.46707613 287.61959733 24.80433273 287.63067245 C20.4907944 287.64110982 16.17986537 287.60658519 11.86688995 287.53753662 C10.28597541 287.51927222 8.70480012 287.51620015 7.12383652 287.52956009 C-4.81701095 287.61613983 -4.81701095 287.61613983 -8.56781006 284.30383682 C-10.12289075 282.01216361 -11.25781926 279.8296219 -12.32804871 277.28175354 C-12.92456238 276.27628479 -13.52107605 275.27081604 -14.13566589 274.23487854 C-14.87284851 272.89683167 -14.87284851 272.89683167 -15.62492371 271.53175354 C-16.18582703 270.52016174 -16.74673035 269.50856995 -17.32463074 268.46632385 C-18.19257263 266.88996155 -18.19257263 266.88996155 -19.07804871 265.28175354 C-23.12812336 257.98587437 -27.19237692 250.70702259 -31.45304871 243.53175354 C-35.03185022 237.50141827 -38.54436645 231.43721946 -42.01554871 225.34425354 C-48.42913734 214.08904445 -54.90342498 202.86934224 -61.38273621 191.65187073 C-63.34576845 188.25105533 -65.30606168 184.8486752 -67.26554871 181.44581604 C-67.90967712 180.32811829 -68.55380554 179.21042053 -69.217453 178.05885315 C-70.48649759 175.85506226 -71.75362898 173.65016842 -73.01872253 171.44410706 C-75.79349902 166.61649233 -78.59195154 161.81456963 -81.52726746 157.08253479 C-82.00510681 156.30402161 -82.48294617 155.52550842 -82.9752655 154.72340393 C-83.84373289 153.31639586 -84.72565603 151.91755545 -85.62419128 150.52955627 C-87.38628148 147.66234341 -88.32702054 145.67656742 -88.33586121 142.28175354 C-87.08179813 138.54872857 -85.27047597 135.35560592 -83.20304871 132.03175354 C-82.28620172 130.51572197 -81.37094002 128.99873096 -80.45695496 127.48097229 C-79.70502869 126.23839661 -79.70502869 126.23839661 -78.93791199 124.97071838 C-75.94148765 119.96577183 -73.0474778 114.9015189 -70.14054871 109.84425354 C-68.84381579 107.59286962 -67.54693894 105.34156859 -66.24992371 103.09034729 C-65.59959167 101.96096741 -64.94925964 100.83158752 -64.27922058 99.66798401 C-62.38635733 96.38294732 -60.49062164 93.09958918 -58.59367371 89.81690979 C-52.46192112 79.20401224 -46.3502944 68.58026253 -40.27851868 57.93296814 C-33.23041893 45.57432175 -26.10897705 33.26033097 -18.91349792 20.98683167 C-17.36317711 18.34168928 -15.81606855 15.6946898 -14.26945496 13.04737854 C-13.35167038 11.47956238 -12.43371315 9.91184727 -11.51554871 8.34425354 C-11.10063171 7.6337384 -10.68571472 6.92322327 -10.25822449 6.19117737 C-6.94136919 0.54226944 -6.58139707 0.16521193 0 0 Z " fill="#AE1E23" transform="translate(88.32804870605469,112.71824645996094)"/>
<path d="M0 0 C10.57731561 -0.55882947 21.15107382 -0.98376872 31.74019814 -1.24349213 C36.65961047 -1.36824817 41.56886418 -1.53688089 46.48242188 -1.81054688 C78.11281759 -3.5264375 78.11281759 -3.5264375 86.08166504 2.22363281 C90.97800579 7.80875619 93.63468957 14.12954968 95.98651123 21.11010742 C97.29538286 24.84226365 99.0557843 27.84286861 101.15625 31.1875 C102.27129248 33.12473579 103.38588868 35.06222854 104.5 37 C111.61989164 49.36078059 118.80183791 61.68468033 126 74 C133.92249688 87.55458247 141.83515868 101.11421889 149.64038086 114.73681641 C152.43259488 119.6011024 155.24629267 124.44066947 158.203125 129.20703125 C158.68040039 129.9844165 159.15767578 130.76180176 159.64941406 131.56274414 C160.5171701 132.96806344 161.39831203 134.36525252 162.29589844 135.75170898 C164.08015939 138.6551396 165.04429651 140.45898224 164.76220703 143.90429688 C163.99629473 147.01504896 163.01065107 149.18658472 161.3671875 151.921875 C160.54069702 153.31575439 160.54069702 153.31575439 159.69750977 154.73779297 C159.09608154 155.73182129 158.49465332 156.72584961 157.875 157.75 C156.58906731 159.91360121 155.3039379 162.07768002 154.01953125 164.2421875 C153.3538916 165.35819336 152.68825195 166.47419922 152.00244141 167.62402344 C148.80627815 173.01253179 145.6849445 178.44355205 142.5625 183.875 C141.30482202 186.05736919 140.04700874 188.23966042 138.7890625 190.421875 C137.52596731 192.6145405 136.26294656 194.80724889 135 197 C127.1300908 210.66388151 119.24444309 224.31761509 111.28686523 237.93066406 C108.17669787 243.25533401 105.07898645 248.58692524 102 253.9296875 C101.66508545 254.51083313 101.3301709 255.09197876 100.98510742 255.69073486 C99.37126114 258.49211183 97.75903111 261.29440788 96.1484375 264.09765625 C94.99027929 266.11040257 93.82770824 268.12061792 92.66015625 270.12792969 C91.5457911 272.0557814 90.44958902 273.99423758 89.37109375 275.94238281 C88.85675781 276.85084961 88.34242188 277.75931641 87.8125 278.6953125 C87.14154297 279.90598389 87.14154297 279.90598389 86.45703125 281.14111328 C84.7417794 283.32943895 83.71099424 283.65677187 81 284 C74.26837708 272.7162482 67.61729428 261.39641708 61.1875 249.9375 C57.15410803 242.74978099 53.02563436 235.66494479 48.65625 228.67578125 C42 217.92216981 42 217.92216981 42 215 C68.73 215 95.46 215 123 215 C116.24065205 201.99631754 116.24065205 201.99631754 108.703125 189.6875 C106.2943698 185.88652849 104.1598235 181.9463643 102 178 C95.87821888 166.86447512 89.62291377 155.8462211 83 145 C79.74834907 148.82032531 77.26543691 152.86205257 74.875 157.25 C71.72358195 162.94429997 68.5068898 168.58943344 65.1875 174.1875 C60.80677961 181.58591536 56.52845972 189.03986824 52.28588867 196.51831055 C48.94278398 202.3983528 45.50343923 208.21408706 42 214 C39.50905083 211.71643875 37.89469203 209.36183351 36.20703125 206.44140625 C35.6670752 205.51183105 35.12711914 204.58225586 34.57080078 203.62451172 C33.99056152 202.61404785 33.41032227 201.60358398 32.8125 200.5625 C32.20390137 199.51078613 31.59530273 198.45907227 30.96826172 197.37548828 C28.97232766 193.92069499 26.98456979 190.46132768 25 187 C24.65616272 186.40060608 24.31232544 185.80121216 23.95806885 185.18365479 C19.60384028 177.59180287 15.25930118 169.99444457 10.93457031 162.38574219 C9.54763124 159.95842378 8.15187186 157.53782625 6.74511719 155.12207031 C6.3741391 154.48185944 6.00316101 153.84164856 5.62094116 153.18203735 C4.90295175 151.94364886 4.18158524 150.70721064 3.45645142 149.47299194 C1 145.22464564 1 145.22464564 1 143 C27.73 143 54.46 143 82 143 C77.38 135.08 72.76 127.16 68 119 C60.84690565 106.55557559 60.84690565 106.55557559 57.625 100.6875 C52.60442892 91.61377685 47.24784151 82.71992346 41.89453125 73.83984375 C41.37125244 72.97141846 40.84797363 72.10299316 40.30883789 71.20825195 C39.3037588 69.54266983 38.29659046 67.87834578 37.28686523 66.21557617 C34.23479554 61.16115666 31.36582356 56.03255484 28.55810547 50.83886719 C25.86845072 45.93831791 23.0214952 41.13052729 20.1875 36.3125 C15.65684115 28.58513652 11.16302464 20.84342046 6.84057617 12.99731445 C5.25265111 10.13411072 3.59765903 7.40700268 1.7578125 4.6953125 C0 2 0 2 0 0 Z " fill="#EB2128" transform="translate(165,113)"/>
<path d="M0 0 C2.17535828 2.80227888 4.04796907 5.65926331 5.828125 8.7265625 C6.64506836 10.13035156 6.64506836 10.13035156 7.47851562 11.5625 C8.06310547 12.573125 8.64769531 13.58375 9.25 14.625 C9.86552734 15.68460938 10.48105469 16.74421875 11.11523438 17.8359375 C16.2257922 26.64118576 21.30971081 35.46187537 26.39160156 44.28369141 C31.14051063 52.52372355 35.92572961 60.74199751 40.72607422 68.95214844 C45.05749332 76.36664068 49.34514218 83.80565447 53.625 91.25 C58.19323536 99.19411587 62.8237689 107.09387701 67.5625 114.9375 C73.10894076 124.12056493 78.1998922 133.3997844 83 143 C55.94 143 28.88 143 1 143 C2.44821697 139.37945758 3.86090944 136.29234289 5.7578125 132.9375 C6.29720459 131.98198242 6.83659668 131.02646484 7.39233398 130.04199219 C7.96411377 129.03813477 8.53589355 128.03427734 9.125 127 C9.71031494 125.9677832 10.29562988 124.93556641 10.89868164 123.87207031 C14.5757922 117.41594298 18.36571626 111.05879866 22.30859375 104.76171875 C24.48328588 101.21089349 26.45924683 97.57141207 28.42578125 93.90234375 C30.29901161 90.44872054 32.23616562 87.03493007 34.1875 83.625 C34.84105469 82.48289062 35.49460937 81.34078125 36.16796875 80.1640625 C37.75252163 77.42741467 39.37301757 74.71163739 41 72 C1.4 72.495 1.4 72.495 -39 73 C-33.68351997 82.98609617 -33.68351997 82.98609617 -27.9375 92.625 C-24.94060385 97.42579711 -22.15738932 102.28668498 -19.484375 107.2734375 C-17.93891555 110.11220248 -16.3249411 112.90084565 -14.6875 115.6875 C-11.81664224 120.58333779 -8.98523831 125.49961866 -6.1875 130.4375 C-5.80231201 131.11192139 -5.41712402 131.78634277 -5.02026367 132.48120117 C-4.65650635 133.12549072 -4.29274902 133.76978027 -3.91796875 134.43359375 C-3.59594482 135.00134521 -3.2739209 135.56909668 -2.94213867 136.15405273 C-1.81301445 138.36636375 -0.9224586 140.6938535 0 143 C-27.06 143 -54.12 143 -82 143 C-80.51508007 139.28770017 -79.03192692 136.09399307 -77.09375 132.640625 C-76.52019775 131.61654541 -75.94664551 130.59246582 -75.35571289 129.53735352 C-74.74332764 128.45252686 -74.13094238 127.3677002 -73.5 126.25 C-72.54951782 124.55991821 -72.54951782 124.55991821 -71.57983398 122.83569336 C-67.74918325 116.04338435 -63.86425832 109.2877754 -59.88720703 102.58032227 C-51.06790571 87.70194549 -42.51424239 72.66582306 -33.94543457 57.64215088 C-26.89834055 45.28690604 -19.77918426 32.9756025 -12.58544922 20.70507812 C-11.0351284 18.05993574 -9.48801984 15.41293626 -7.94140625 12.765625 C-7.02362168 11.19780884 -6.10566444 9.63009373 -5.1875 8.0625 C-4.77258301 7.35198486 -4.35766602 6.64146973 -3.93017578 5.90942383 C-1.11511093 1.11511093 -1.11511093 1.11511093 0 0 Z " fill="#E92128" transform="translate(82,113)"/>
<path d="M0 0 C4.32083927 3.69198473 6.66243416 8.35142257 9.375 13.25 C10.44547562 15.15428654 11.51713671 17.05790705 12.58984375 18.9609375 C13.14784668 19.95319336 13.70584961 20.94544922 14.28076172 21.96777344 C17.1151546 26.96680207 20.0290861 31.91880051 22.9375 36.875 C27.56309805 44.7775937 32.12865042 52.71065029 36.625 60.6875 C37.42079468 62.09926514 37.42079468 62.09926514 38.23266602 63.53955078 C39.29259927 65.42066874 40.35241456 67.30185318 41.41210938 69.18310547 C50.61956602 85.61672273 50.61956602 85.61672273 60.51171875 101.640625 C62.54405904 104.8624978 64.32477799 108.19699645 66.12109375 111.5546875 C68.76695431 116.40634865 71.50842178 121.20193373 74.25 126 C75.04796997 127.39968018 75.04796997 127.39968018 75.86206055 128.82763672 C76.36648682 129.7095166 76.87091309 130.59139648 77.390625 131.5 C77.84469727 132.2940625 78.29876953 133.088125 78.76660156 133.90625 C79.7873707 135.63905209 80.88443561 137.32665341 82 139 C82 139.99 82 140.98 82 142 C71.41253482 142.2086788 60.82555993 142.36851791 50.23645592 142.46630955 C45.31916975 142.51324995 40.40329192 142.57689459 35.48681641 142.67895508 C30.74046668 142.77686548 25.99546976 142.83058134 21.24818802 142.85389519 C19.43872398 142.87050464 17.62933276 142.90294238 15.82044601 142.95157051 C1.67013479 143.31678557 1.67013479 143.31678557 -2.36083984 140.13864136 C-3.94766478 137.81030574 -4.99685255 135.62620764 -6 133 C-6.89477051 131.49179687 -6.89477051 131.49179687 -7.80761719 129.953125 C-8.5447998 128.61507812 -8.5447998 128.61507812 -9.296875 127.25 C-9.85785889 126.23824707 -10.41884277 125.22649414 -10.99682617 124.18408203 C-11.86464722 122.60796143 -11.86464722 122.60796143 -12.75 121 C-16.82297284 113.6638288 -20.91193108 106.34526222 -25.1875 99.125 C-25.76564453 98.14128418 -25.76564453 98.14128418 -26.35546875 97.13769531 C-28.57415486 93.37147563 -30.83693299 89.63616571 -33.12890625 85.9140625 C-34.16947989 84.1928347 -35.20984843 82.47148289 -36.25 80.75 C-37.00446411 79.55141357 -37.00446411 79.55141357 -37.77416992 78.32861328 C-38.2251001 77.57563965 -38.67603027 76.82266602 -39.140625 76.046875 C-39.54829102 75.38526367 -39.95595703 74.72365234 -40.37597656 74.04199219 C-41.28106043 71.08028584 -40.3770225 69.72769661 -39 67 C-37.974849 65.08344321 -36.91556831 63.1849447 -35.83203125 61.30078125 C-35.19330078 60.18646729 -34.55457031 59.07215332 -33.89648438 57.92407227 C-33.20194358 56.72014523 -32.50727908 55.51628954 -31.8125 54.3125 C-31.0954606 53.06516217 -30.37866725 51.81768287 -29.66210938 50.57006836 C-28.18110807 47.99287388 -26.69803647 45.41688672 -25.21337891 42.84179688 C-23.43461731 39.75602923 -21.66089542 36.66741084 -19.88955688 33.57737732 C-6.72186878 10.60895585 -6.72186878 10.60895585 0 0 Z " fill="#EA2128" transform="translate(82,257)"/>
<path d="M0 0 C26.73 0 53.46 0 81 0 C79.76540872 3.0864782 78.68785459 5.73925482 77.109375 8.58203125 C76.5512915 9.58919189 76.5512915 9.58919189 75.98193359 10.61669922 C75.37212646 11.70362061 75.37212646 11.70362061 74.75 12.8125 C74.09572021 13.98449951 74.09572021 13.98449951 73.42822266 15.18017578 C69.24374134 22.63719202 64.9292126 30.01719191 60.60546875 37.39404297 C55.93095952 45.37714972 51.3290964 53.39949043 46.75 61.4375 C42.14919617 69.51113721 37.52511492 77.56808686 32.78930664 85.56347656 C29.69575298 90.79428983 26.65518225 96.05453925 23.62451172 101.32202148 C21.69899325 104.66753096 19.76796825 108.00981045 17.8359375 111.3515625 C15.30327835 115.73269057 12.79043308 120.12438354 10.2890625 124.5234375 C9.13074211 126.53676552 7.97191214 128.54980048 6.8125 130.5625 C6.02008911 131.97245239 6.02008911 131.97245239 5.21166992 133.41088867 C4.71513916 134.26658447 4.2186084 135.12228027 3.70703125 136.00390625 C3.2788208 136.75486572 2.85061035 137.5058252 2.40942383 138.27954102 C0.7173488 140.34502738 -0.39854674 140.64442064 -3 141 C-9.73162292 129.7162482 -16.38270572 118.39641708 -22.8125 106.9375 C-26.84589197 99.74978099 -30.97436564 92.66494479 -35.34375 85.67578125 C-42 74.92216981 -42 74.92216981 -42 72 C-15.27 72 11.46 72 39 72 C32.24065205 58.99631754 32.24065205 58.99631754 24.703125 46.6875 C22.29438933 42.88655931 20.16234303 38.9449139 18 35 C17.20256923 33.55818073 16.4044075 32.11676547 15.60546875 30.67578125 C15.01354736 29.60759155 15.01354736 29.60759155 14.40966797 28.51782227 C14.00635254 27.79006592 13.60303711 27.06230957 13.1875 26.3125 C12.76098145 25.54156006 12.33446289 24.77062012 11.89501953 23.97631836 C9.82216996 20.23956183 7.73135809 16.51696615 5.57421875 12.828125 C5.20208252 12.18963623 4.82994629 11.55114746 4.4465332 10.89331055 C3.43591519 9.16657907 2.41742445 7.44446227 1.3984375 5.72265625 C0 3 0 3 0 0 Z " fill="#EA2128" transform="translate(249,256)"/>
<path d="M0 0 C10.55250332 -0.30175123 21.10397478 -0.5324564 31.65991974 -0.67355824 C36.56226879 -0.74129878 41.46165904 -0.83308583 46.36230469 -0.98071289 C51.09584859 -1.12240699 55.82655616 -1.19977546 60.5620575 -1.23340416 C62.36452412 -1.25735166 64.16684202 -1.30412622 65.96809387 -1.37449074 C77.40735553 -1.80341398 77.40735553 -1.80341398 82 0 C85.99065716 3.91166207 87.84586086 7.83332641 90 13 C91.10664589 15.09314062 92.2291385 17.17806752 93.375 19.25 C93.94089844 20.31734375 94.50679688 21.3846875 95.08984375 22.484375 C100.10317442 31.81972725 105.66054023 40.87629038 111.25 49.875 C115.67328675 57.02030937 119.91969179 64.16810053 123 72 C112.46614788 72.47933564 101.93268409 72.87585353 91.39189243 73.16833401 C86.49637733 73.3067434 81.60520917 73.47300323 76.71313477 73.7043457 C71.98678353 73.92680289 67.26335493 74.07422057 62.53281975 74.17097664 C60.73348278 74.22073379 58.93466834 74.29700167 57.13763618 74.40075493 C43.43692357 75.16665263 43.43692357 75.16665263 39.37504959 71.55526733 C36.50535415 67.97743423 34.56047254 64.04715291 32.78901482 59.8367939 C31.68160212 57.25878289 30.30916371 54.85012024 28.921875 52.4140625 C28.45330078 51.54168945 27.98472656 50.66931641 27.50195312 49.77050781 C24.51097972 44.25334816 21.36771543 38.82119438 18.25 33.375 C17.5442542 32.13949518 16.83852519 30.90398077 16.1328125 29.66845703 C11.74694767 21.99924514 7.31778988 14.35695819 2.74316406 6.79833984 C0 2.21402156 0 2.21402156 0 0 Z " fill="#AD1E23" transform="translate(83,113)"/>
<path d="M0 0 C26.73 0 53.46 0 81 0 C79.27240301 4.31899248 77.29291163 8.22950486 75 12.25 C74.60264648 12.95181396 74.20529297 13.65362793 73.79589844 14.37670898 C70.60088485 19.99795943 67.32158682 25.56775491 64.0246582 31.12963867 C59.75884912 38.35241975 55.64933312 45.66232278 51.55371094 52.98266602 C48.82863659 57.836969 46.03301321 62.61492158 43.05249023 67.31665039 C41.75355329 69.39416611 40.58270632 71.5218128 39.4375 73.6875 C34.46993162 82.89137036 29.20992239 91.93200521 24 101 C23.38318359 102.07459473 22.76636719 103.14918945 22.13085938 104.25634766 C17.77144274 111.84778367 13.39300035 119.42795448 9 127 C8.50209961 127.86173828 8.00419922 128.72347656 7.49121094 129.61132812 C6.23127139 131.78734312 4.96180243 133.95737492 3.6875 136.125 C3.33276611 136.74036621 2.97803223 137.35573242 2.61254883 137.98974609 C1.79787808 139.3614584 0.90732599 140.68773378 0 142 C-0.66 142 -1.32 142 -2 142 C-3.52385614 139.35864935 -5.04770659 136.71729542 -6.5715332 134.07592773 C-7.91502683 131.74726036 -9.25860035 129.4186393 -10.60229492 127.09008789 C-14.0652474 121.08870082 -17.52672393 115.08647456 -20.984375 109.08203125 C-22.26038178 106.8671674 -23.53642281 104.65232329 -24.8125 102.4375 C-25.43205566 101.36129395 -26.05161133 100.28508789 -26.68994141 99.17626953 C-29.48872466 94.32181539 -32.29995274 89.47640685 -35.1640625 84.66015625 C-35.63739014 83.86359619 -36.11071777 83.06703613 -36.59838867 82.24633789 C-37.4642552 80.7938606 -38.33395536 79.34365882 -39.20825195 77.89624023 C-42 73.21802943 -42 73.21802943 -42 71 C-14.94 71 12.12 71 40 71 C37.36 66.38 34.72 61.76 32 57 C30.66666667 54.64583333 29.33333333 52.29166667 28 49.9375 C25.38441379 45.33644015 22.66966158 40.80733592 19.875 36.3125 C16.97033426 31.63119405 14.24575404 26.90038118 11.6484375 22.04296875 C10.34363629 19.63434282 9.01519091 17.24587558 7.6640625 14.86328125 C7.05099243 13.78203979 7.05099243 13.78203979 6.42553711 12.67895508 C5.61322574 11.24928066 4.79899834 9.82069285 3.98266602 8.39331055 C2.40926848 5.61967344 1.01116032 3.03348096 0 0 Z " fill="#AF1E23" transform="translate(42,185)"/>
<path d="M0 0 C0.97453125 0.00451172 1.9490625 0.00902344 2.953125 0.01367188 C5.34381434 0.02539094 7.7343744 0.04179781 10.125 0.0625 C10.41857315 26.23617694 1.82277669 49.49969186 -16.28515625 68.60546875 C-33.98385233 85.32570033 -57.29044135 93.72504372 -81.38964844 93.26708984 C-83.21858365 93.21344217 -85.0469325 93.14029011 -86.875 93.0625 C-88.19203692 70.47775571 -80.35552457 48.29092795 -65.875 31.0625 C-64.98361328 29.95261719 -64.98361328 29.95261719 -64.07421875 28.8203125 C-48.39566729 10.05798798 -24.15215152 -0.2127222 0 0 Z " fill="#36B24A" transform="translate(247.875,-0.0625)"/>
<path d="M0 0 C3.89027855 3.41499565 5.98216639 7.25032488 8.375 11.75 C12.37957036 19.11495359 16.51280489 26.39136797 20.75 33.625 C21.33201172 34.62063965 21.91402344 35.6162793 22.51367188 36.64208984 C25.66799967 42.03316971 28.8348106 47.41676805 32.0078125 52.796875 C32.65524414 53.89821777 33.30267578 54.99956055 33.96972656 56.13427734 C35.22053746 58.26180987 36.47498098 60.38721173 37.73339844 62.51025391 C38.29317383 63.46335449 38.85294922 64.41645508 39.4296875 65.3984375 C39.92710449 66.24067871 40.42452148 67.08291992 40.93701172 67.95068359 C42 70 42 70 42 72 C14.94 72 -12.12 72 -40 72 C-38.67563486 68.68908714 -37.4418494 65.81213104 -35.75 62.734375 C-35.31204102 61.93628418 -34.87408203 61.13819336 -34.42285156 60.31591797 C-33.95331055 59.46916504 -33.48376953 58.62241211 -33 57.75 C-32.50725586 56.85812988 -32.01451172 55.96625977 -31.50683594 55.04736328 C-28.11659002 48.93991898 -24.63484165 42.89399121 -21.0703125 36.88696289 C-17.34304772 30.60379661 -13.67579497 24.2866028 -10.02331543 17.95977783 C-9.01681272 16.21661792 -8.00890645 14.47426867 -7.00097656 12.73193359 C-6.3819043 11.6589502 -5.76283203 10.5859668 -5.125 9.48046875 C-4.57070313 8.52035889 -4.01640625 7.56024902 -3.4453125 6.57104492 C-2.22860237 4.40665735 -1.08408631 2.23296782 0 0 Z " fill="#ED363F" transform="translate(288,184)"/>
<path d="M0 0 C3.38689736 3.08035698 5.47202814 6.25564823 7.6875 10.25 C8.0278125 10.8577124 8.368125 11.4654248 8.71875 12.09155273 C9.81867271 14.05766457 10.90965285 16.02856425 12 18 C13.49581577 20.6898499 14.996362 23.37701549 16.5 26.0625 C16.87511719 26.73337646 17.25023437 27.40425293 17.63671875 28.09545898 C20.66826862 33.48495357 23.89149135 38.73118709 27.16015625 43.98046875 C29.41707595 47.68450045 31.50259575 51.46055688 33.546875 55.28515625 C34.58189622 57.21886525 35.63610201 59.14235751 36.703125 61.05859375 C37.25484375 62.04988281 37.8065625 63.04117188 38.375 64.0625 C38.87773437 64.96097656 39.38046875 65.85945313 39.8984375 66.78515625 C41 69 41 69 41 71 C13.94 71.33 -13.12 71.66 -41 72 C-39.73002665 68.82506662 -38.59844601 66.10075858 -36.96875 63.171875 C-36.5756665 62.46361572 -36.18258301 61.75535645 -35.77758789 61.02563477 C-35.14518188 59.89919556 -35.14518188 59.89919556 -34.5 58.75 C-34.05712646 57.957146 -33.61425293 57.16429199 -33.15795898 56.34741211 C-29.38938513 49.63062062 -25.500722 42.98858576 -21.57421875 36.36328125 C-18.80245298 31.68105697 -16.09006579 26.96524556 -13.375 22.25 C-9.04922694 14.7477255 -4.59815829 7.33860793 0 0 Z " fill="#B01E23" transform="translate(247,257)"/>
<path d="M0 0 C27.06 0 54.12 0 82 0 C78.04557729 7.90884541 74.05637337 15.54600318 69.5625 23.125 C68.33525502 25.21053604 67.10871888 27.29648933 65.8828125 29.3828125 C65.25020508 30.45821289 64.61759766 31.53361328 63.96582031 32.64160156 C61.93896416 36.10427334 59.93008083 39.57669183 57.9296875 43.0546875 C57.59462692 43.63711212 57.25956635 44.21953674 56.91435242 44.8196106 C55.29527434 47.63534092 53.67823077 50.45222712 52.06274414 53.27001953 C48.81418498 58.91957175 45.49675603 64.50037615 42 70 C38.13107018 68.71035673 37.78824846 67.38906206 35.8125 63.8828125 C35.20196777 62.81063477 34.59143555 61.73845703 33.96240234 60.63378906 C33.30818944 59.46423678 32.65405719 58.29463937 32 57.125 C31.32208679 55.92881713 30.64320515 54.73318261 29.96337891 53.53808594 C28.60075117 51.14062037 27.242368 48.74083634 25.88769531 46.33886719 C23.41167 41.95938941 20.89910391 37.60188695 18.375 33.25 C17.95049561 32.51483154 17.52599121 31.77966309 17.08862305 31.0222168 C14.56822132 26.66639235 12.01248227 22.33319223 9.43359375 18.01171875 C8.8317627 17.00141602 8.22993164 15.99111328 7.60986328 14.95019531 C6.43118871 12.97453053 5.24869967 11.00113538 4.06201172 9.03027344 C3.53236816 8.14243164 3.00272461 7.25458984 2.45703125 6.33984375 C1.98241455 5.54956787 1.50779785 4.75929199 1.01879883 3.94506836 C0 2 0 2 0 0 Z " fill="#680C0A" transform="translate(83,256)"/>
<path d="M0 0 C27.06 0 54.12 0 82 0 C78.62406948 7.87717122 78.62406948 7.87717122 76.57421875 11.43359375 C76.1145874 12.23490723 75.65495605 13.0362207 75.18139648 13.86181641 C74.68841064 14.71179199 74.1954248 15.56176758 73.6875 16.4375 C72.90451538 17.7975415 72.90451538 17.7975415 72.10571289 19.18505859 C66.91401827 28.18788198 61.67086207 37.16102155 56.42578125 46.1328125 C51.59058427 54.40646307 46.7944384 62.7026862 42 71 C38.82559186 68.07370751 36.7465497 65.15654511 34.63671875 61.3984375 C34.00435303 60.28082031 33.3719873 59.16320312 32.72045898 58.01171875 C32.04278441 56.79949123 31.36513195 55.58725135 30.6875 54.375 C29.98131051 53.12326863 29.27434927 51.87197237 28.56665039 50.62109375 C27.47288273 48.68761328 26.37959785 46.75387732 25.28868103 44.81878662 C21.54930449 38.18675315 17.74792276 31.59144604 13.9375 25 C13.34348389 23.97052246 12.74946777 22.94104492 12.13745117 21.88037109 C9.77412645 17.78686788 7.40895383 13.69515119 5.01220703 9.62109375 C4.37009277 8.52925781 3.72797852 7.43742187 3.06640625 6.3125 C2.47931885 5.31863281 1.89223145 4.32476562 1.28735352 3.30078125 C0 1 0 1 0 0 Z " fill="#ED363F" transform="translate(41,328)"/>
<path d="M0 0 C4.41571677 1.47190559 5.43853396 4.9635732 7.5 8.875 C8.39166897 10.52298054 9.28495287 12.17008813 10.1796875 13.81640625 C10.64213867 14.67121582 11.10458984 15.52602539 11.58105469 16.40673828 C13.86426833 20.57953514 16.23807523 24.6983763 18.625 28.8125 C19.08608154 29.60833496 19.54716309 30.40416992 20.0222168 31.22412109 C23.32725172 36.9028308 26.75502526 42.49338932 30.22265625 48.07421875 C34.54450137 55.18864072 38.27793871 62.55587741 42 70 C14.94 70 -12.12 70 -40 70 C-38.55178303 66.37945758 -37.13909056 63.29234289 -35.2421875 59.9375 C-34.70279541 58.98198242 -34.16340332 58.02646484 -33.60766602 57.04199219 C-33.03588623 56.03813477 -32.46410645 55.03427734 -31.875 54 C-30.99702759 52.4516748 -30.99702759 52.4516748 -30.10131836 50.87207031 C-26.4242078 44.41594298 -22.63428374 38.05879866 -18.69140625 31.76171875 C-16.51735365 28.21193771 -14.54241227 24.57302149 -12.57421875 20.90625 C-10.69387709 17.43485001 -8.76253484 13.99511388 -6.8125 10.5625 C-6.31266602 9.67510132 -6.31266602 9.67510132 -5.80273438 8.76977539 C-4.04489033 5.68514815 -2.20786731 2.78204952 0 0 Z " fill="#E92128" transform="translate(123,186)"/>
<path d="M0 0 C26.73 0 53.46 0 81 0 C79.53195771 4.40412687 78.32284118 7.47882978 76.05078125 11.359375 C75.45724854 12.3800708 74.86371582 13.4007666 74.25219727 14.45239258 C73.61209717 15.54060303 72.97199707 16.62881348 72.3125 17.75 C71.30024652 19.48615318 70.28800279 21.22231213 69.27635193 22.95881653 C68.57753031 24.15748795 67.87794631 25.35571522 67.17762756 26.55351257 C64.75116954 30.70367062 62.34530259 34.86515344 59.953125 39.03515625 C47.45473081 60.81266127 47.45473081 60.81266127 41 71 C37.20752978 66.62134001 34.50216568 61.84172161 31.6875 56.8125 C30.62169187 54.92804701 29.55525588 53.04394902 28.48828125 51.16015625 C27.92447754 50.16258301 27.36067383 49.16500977 26.77978516 48.13720703 C23.67201168 42.6591701 20.52333129 37.20479672 17.375 31.75 C16.74352051 30.65405518 16.11204102 29.55811035 15.46142578 28.42895508 C12.60806123 23.48393864 9.74234399 18.54774886 6.82421875 13.640625 C6.35258301 12.84688477 5.88094727 12.05314453 5.39501953 11.23535156 C4.53160313 9.78693811 3.66432609 8.34081627 2.79248047 6.89746094 C0 2.21803916 0 2.21803916 0 0 Z " fill="#670C0A" transform="translate(83,113)"/>
<path d="M0 0 C2.79563775 2.49384792 4.43253404 5.25215081 6.265625 8.50390625 C7.21900757 10.18516602 7.21900757 10.18516602 8.19165039 11.90039062 C8.8777696 13.12109225 9.56388607 14.34179541 10.25 15.5625 C11.32340502 17.45920045 12.39859097 19.35488466 13.47377014 21.25057983 C14.21160076 22.55186836 14.9488482 23.85348771 15.68553162 25.15542603 C19.44139422 31.79144077 23.24766016 38.39772826 27.0625 45 C27.65643555 46.02939697 28.25037109 47.05879395 28.86230469 48.11938477 C29.4349707 49.11123779 30.00763672 50.10309082 30.59765625 51.125 C31.1508252 52.0840625 31.70399414 53.043125 32.27392578 54.03125 C33.50101419 56.14177263 34.74027096 58.24524086 35.98779297 60.34375 C36.62990723 61.4265625 37.27202148 62.509375 37.93359375 63.625 C38.52068115 64.60726562 39.10776855 65.58953125 39.71264648 66.6015625 C41 69 41 69 41 71 C14.27 71 -12.46 71 -40 71 C-38.35862548 66.07587645 -36.53069148 62.22380223 -33.875 57.875 C-29.50167919 50.58172783 -25.24921741 43.22450713 -21.0435791 35.83377075 C-16.11607583 27.17519244 -11.17762632 18.52391179 -6.125 9.9375 C-5.72667969 9.26009766 -5.32835937 8.58269531 -4.91796875 7.88476562 C-3.3370058 5.20950626 -1.72428604 2.58642906 0 0 Z " fill="#ED363F" transform="translate(247,113)"/>
<path d="M0 0 C26.73 0 53.46 0 81 0 C79.73002665 3.17493338 78.59844601 5.89924142 76.96875 8.828125 C76.57574707 9.53622314 76.18274414 10.24432129 75.77783203 10.97387695 C75.35614746 11.72499756 74.93446289 12.47611816 74.5 13.25 C74.05640137 14.0443042 73.61280273 14.8386084 73.15576172 15.65698242 C69.81598283 21.61042437 66.38272903 27.50472197 62.90136719 33.3762207 C58.95179549 40.04631773 55.11048952 46.77653707 51.28564453 53.51879883 C47.94257068 59.39864885 44.50334507 65.21424256 41 71 C38.50905083 68.71643875 36.89469203 66.36183351 35.20703125 63.44140625 C34.39709717 62.04704346 34.39709717 62.04704346 33.57080078 60.62451172 C32.99056152 59.61404785 32.41032227 58.60358398 31.8125 57.5625 C31.20390137 56.51078613 30.59530273 55.45907227 29.96826172 54.37548828 C27.97232766 50.92069499 25.98456979 47.46132768 24 44 C23.65616272 43.40060608 23.31232544 42.80121216 22.95806885 42.18365479 C18.60384028 34.59180287 14.25930118 26.99444457 9.93457031 19.38574219 C8.54763124 16.95842378 7.15187186 14.53782625 5.74511719 12.12207031 C5.3741391 11.48185944 5.00316101 10.84164856 4.62094116 10.18203735 C3.90295175 8.94364886 3.18158524 7.70721064 2.45645142 6.47299194 C0 2.22464564 0 2.22464564 0 0 Z " fill="#ED3640" transform="translate(166,256)"/>
<path d="M0 0 C2.17535828 2.80227888 4.04796907 5.65926331 5.828125 8.7265625 C6.37315674 9.66314697 6.91818848 10.59973145 7.47973633 11.56469727 C8.06392334 12.57459717 8.64811035 13.58449707 9.25 14.625 C9.86190186 15.6780835 10.47380371 16.73116699 11.10424805 17.81616211 C16.33008385 26.81823981 21.52271499 35.83955225 26.71020508 44.86376953 C30.57204924 51.56921913 34.48312379 58.2395668 38.5637207 64.81469727 C41 68.78867235 41 68.78867235 41 71 C13.94 71 -13.12 71 -41 71 C-31.80117167 54.13548139 -22.40859136 37.43197533 -12.68212891 20.86621094 C-11.09087882 18.15485012 -9.50377981 15.44110703 -7.91796875 12.7265625 C-7.00797517 11.17177978 -6.09782955 9.61708604 -5.1875 8.0625 C-4.77306641 7.35279053 -4.35863281 6.64308105 -3.93164062 5.91186523 C-1.11499909 1.11499909 -1.11499909 1.11499909 0 0 Z " fill="#EA353A" transform="translate(82,113)"/>
<path d="M0 0 C3.74787725 4.31310236 6.35800727 9.00459513 9.0625 14 C9.92764316 15.58373903 10.79350937 17.16708333 11.66015625 18.75 C12.0670166 19.4939502 12.47387695 20.23790039 12.89306641 21.00439453 C14.20608707 23.37153853 15.59423412 25.68691155 17 28 C18.171424 30.03894083 19.33757937 32.08091288 20.5 34.125 C23.8793605 40.05118339 27.27649136 45.96697589 30.6875 51.875 C31.13867188 52.65891113 31.58984375 53.44282227 32.0546875 54.25048828 C34.6273645 58.70080455 37.28124779 63.07154793 40.09301758 67.37548828 C41 69 41 69 41 71 C14.27 71 -12.46 71 -40 71 C-38.53195771 66.59587313 -37.32284118 63.52117022 -35.05078125 59.640625 C-34.45724854 58.6199292 -33.86371582 57.5992334 -33.25219727 56.54760742 C-32.29204712 54.91529175 -32.29204712 54.91529175 -31.3125 53.25 C-30.30024652 51.51384682 -29.28800279 49.77768787 -28.27635193 48.04118347 C-27.57753031 46.84251205 -26.87794631 45.64428478 -26.17762756 44.44648743 C-23.75116954 40.29632938 -21.34530259 36.13484656 -18.953125 31.96484375 C-6.45473081 10.18733873 -6.45473081 10.18733873 0 0 Z " fill="#AF1E23" transform="translate(206,185)"/>
<path d="M0 0 C26.73 0 53.46 0 81 0 C71.50962634 17.39901837 61.8577031 34.69299264 51.79492188 51.76831055 C48.06510544 58.1104433 44.48552173 64.5203837 41 71 C37.90931326 68.00298251 35.75473525 65.19203327 33.625 61.4375 C33.01269531 60.36242187 32.40039062 59.28734375 31.76953125 58.1796875 C29.76646331 54.5803557 27.79952681 50.96291827 25.83984375 47.33984375 C23.39836734 42.90786429 20.88820653 38.51660726 18.375 34.125 C17.86590088 33.23458008 17.35680176 32.34416016 16.83227539 31.42675781 C14.08440698 26.62555122 11.32543247 21.8310105 8.5546875 17.04296875 C8.00119629 16.08310059 7.44770508 15.12323242 6.87744141 14.13427734 C5.807801 12.27965631 4.73465924 10.42704945 3.65771484 8.57666016 C3.1777002 7.74312012 2.69768555 6.90958008 2.203125 6.05078125 C1.77676758 5.31512939 1.35041016 4.57947754 0.91113281 3.8215332 C0 2 0 2 0 0 Z " fill="#670C0A" transform="translate(125,185)"/>
<path d="M0 0 C2.41793676 3.07546589 4.37498851 6.26860771 6.30078125 9.671875 C6.94144531 10.79964355 7.58210938 11.92741211 8.2421875 13.08935547 C8.57959961 13.68601013 8.91701172 14.28266479 9.26464844 14.8973999 C11.05197433 18.05738959 12.84837327 21.21221215 14.64453125 24.3671875 C15.00922516 25.00814362 15.37391907 25.64909973 15.74966431 26.30947876 C19.28953674 32.52347209 22.88764802 38.70288548 26.5 44.875 C34.33122914 58.26841266 34.33122914 58.26841266 37.875 64.4375 C38.49117188 65.50871094 39.10734375 66.57992187 39.7421875 67.68359375 C41 70 41 70 41 71 C14.27 71 -12.46 71 -40 71 C-38.67563486 67.68908714 -37.4418494 64.81213104 -35.75 61.734375 C-35.31204102 60.93628418 -34.87408203 60.13819336 -34.42285156 59.31591797 C-33.95331055 58.46916504 -33.48376953 57.62241211 -33 56.75 C-32.50725586 55.85812988 -32.01451172 54.96625977 -31.50683594 54.04736328 C-28.11691972 47.94051294 -24.63743009 41.89390652 -21.0703125 35.88916016 C-16.63765942 28.42299724 -12.31333114 20.89461448 -7.98937988 13.36517334 C-7.03537137 11.70393547 -6.08020721 10.04336142 -5.125 8.3828125 C-4.57070312 7.41746582 -4.01640625 6.45211914 -3.4453125 5.45751953 C-2.35469661 3.60310407 -1.19335335 1.79003003 0 0 Z " fill="#AE1F24" transform="translate(165,256)"/>
<path d="M0 0 C26.4 0 52.8 0 80 0 C78.57181199 4.28456404 77.48701477 7.1910008 75.26953125 10.921875 C74.72119629 11.85209473 74.17286133 12.78231445 73.60791016 13.74072266 C72.71918213 15.23031494 72.71918213 15.23031494 71.8125 16.75 C70.54490539 18.89804372 69.27800278 21.04649592 68.01171875 23.1953125 C67.35349121 24.30938477 66.69526367 25.42345703 66.01708984 26.57128906 C62.68476068 32.23568397 59.40462869 37.9299803 56.125 43.625 C55.18188965 45.26106201 55.18188965 45.26106201 54.21972656 46.93017578 C49.79487185 54.6097048 45.38374945 62.29692589 41 70 C40.34 70 39.68 70 39 70 C38.67837891 69.43192627 38.35675781 68.86385254 38.02539062 68.27856445 C29.71125446 53.58558898 29.71125446 53.58558898 20.9140625 39.1796875 C19.26209699 36.43540193 17.72356439 33.66957066 16.203125 30.8515625 C12.46755117 23.9491002 8.407048 17.25049629 4.328125 10.546875 C3.48894531 9.14695312 3.48894531 9.14695312 2.6328125 7.71875 C1.87315186 6.46481445 1.87315186 6.46481445 1.09814453 5.18554688 C0 3 0 3 0 0 Z " fill="#670C0A" transform="translate(125,328)"/>
<path d="M0 0 C0.92683594 0.00451172 1.85367188 0.00902344 2.80859375 0.01367188 C5.08079709 0.02538426 7.35286388 0.04178628 9.625 0.0625 C8.34437515 1.7699998 7.00732443 3.43623596 5.625 5.0625 C4.965 5.0625 4.305 5.0625 3.625 5.0625 C3.625 5.7225 3.625 6.3825 3.625 7.0625 C2.3671875 8.296875 2.3671875 8.296875 0.5 9.8125 C-3.52931409 13.23883575 -7.27573424 16.87548672 -11 20.625 C-11.59522461 21.22352783 -12.19044922 21.82205566 -12.80371094 22.4387207 C-14.66277561 24.31137503 -16.5193148 26.18649708 -18.375 28.0625 C-32.27308157 42.11275035 -32.27308157 42.11275035 -38.43457031 47.34033203 C-43.71787481 52.02936448 -48.54638134 57.24436459 -53.48046875 62.29492188 C-54.34027344 63.16568359 -55.20007813 64.03644531 -56.0859375 64.93359375 C-56.86243652 65.72693115 -57.63893555 66.52026855 -58.43896484 67.33764648 C-60.375 69.0625 -60.375 69.0625 -62.375 69.0625 C-62.59027344 69.61550781 -62.80554688 70.16851562 -63.02734375 70.73828125 C-64.81764134 73.82589593 -67.2840111 75.925473 -69.9375 78.25 C-74.70379736 82.50827717 -79.27349592 86.89500661 -83.73046875 91.48046875 C-85.375 93.0625 -85.375 93.0625 -86.375 93.0625 C-87.69203692 70.47775571 -79.85552457 48.29092795 -65.375 31.0625 C-64.48361328 29.95261719 -64.48361328 29.95261719 -63.57421875 28.8203125 C-48.08137798 10.28022561 -23.92105206 -0.22180719 0 0 Z " fill="#109447" transform="translate(247.375,-0.0625)"/>
</svg>
